<svg viewBox="-16 -32 880 192" width="880" height="192" xmlns="http://www.w3.org/2000/svg"><desc>Generated with https://github.com/Platane/snk</desc><style>@keyframes c0{13.35%{fill:var(--c1)}13.37%,to{fill:var(--ce)}}@keyframes c1{13.81%{fill:var(--c1)}13.83%,to{fill:var(--ce)}}@keyframes c2{16.58%{fill:var(--c1)}16.6%,to{fill:var(--ce)}}@keyframes c3{65.89%{fill:var(--c2)}65.91%,to{fill:var(--ce)}}@keyframes c4{65.43%{fill:var(--c2)}65.45%,to{fill:var(--ce)}}@keyframes c5{41%{fill:var(--c1)}41.02%,to{fill:var(--ce)}}@keyframes c6{41.93%{fill:var(--c1)}41.95%,to{fill:var(--ce)}}@keyframes c7{39.16%{fill:var(--c1)}39.18%,to{fill:var(--ce)}}@keyframes c8{38.24%{fill:var(--c1)}38.26%,to{fill:var(--ce)}}@keyframes c9{62.66%{fill:var(--c2)}62.68%,to{fill:var(--ce)}}@keyframes ca{18.88%{fill:var(--c1)}18.9%,to{fill:var(--ce)}}@keyframes cb{19.34%{fill:var(--c1)}19.36%,to{fill:var(--ce)}}@keyframes cc{36.4%{fill:var(--c1)}36.42%,to{fill:var(--ce)}}@keyframes cd{70.04%{fill:var(--c3)}70.06%,to{fill:var(--ce)}}@keyframes ce{20.73%{fill:var(--c1)}20.75%,to{fill:var(--ce)}}@keyframes cf{70.5%{fill:var(--c3)}70.52%,to{fill:var(--ce)}}@keyframes cg{58.52%{fill:var(--c2)}58.54%,to{fill:var(--ce)}}@keyframes ch{23.49%{fill:var(--c1)}23.51%,to{fill:var(--ce)}}@keyframes ci{23.03%{fill:var(--c1)}23.05%,to{fill:var(--ce)}}@keyframes cj{34.55%{fill:var(--c1)}34.57%,to{fill:var(--ce)}}@keyframes ck{33.63%{fill:var(--c1)}33.65%,to{fill:var(--ce)}}@keyframes cl{33.17%{fill:var(--c1)}33.19%,to{fill:var(--ce)}}@keyframes cm{75.57%{fill:var(--c4)}75.59%,to{fill:var(--ce)}}@keyframes cn{30.4%{fill:var(--c1)}30.42%,to{fill:var(--ce)}}@keyframes co{31.33%{fill:var(--c1)}31.35%,to{fill:var(--ce)}}@keyframes cp{26.26%{fill:var(--c1)}26.28%,to{fill:var(--ce)}}@keyframes cq{52.99%{fill:var(--c2)}53.01%,to{fill:var(--ce)}}@keyframes cr{29.02%{fill:var(--c1)}29.04%,to{fill:var(--ce)}}@keyframes cs{50.68%{fill:var(--c1)}50.7%,to{fill:var(--ce)}}@keyframes ct{27.18%{fill:var(--c1)}27.2%,to{fill:var(--ce)}}@keyframes cu{28.1%{fill:var(--c1)}28.12%,to{fill:var(--ce)}}@keyframes cv{28.56%{fill:var(--c1)}28.58%,to{fill:var(--ce)}}@keyframes cw{51.14%{fill:var(--c1)}51.16%,to{fill:var(--ce)}}@keyframes u0{13.35%{transform:scale(0,1)}13.37%,13.81%{transform:scale(.04,1)}13.83%,16.58%{transform:scale(.08,1)}16.6%,18.88%{transform:scale(.12,1)}18.9%,19.34%{transform:scale(.16,1)}19.36%,20.73%{transform:scale(.2,1)}20.75%,23.03%{transform:scale(.24,1)}23.05%,23.49%{transform:scale(.28,1)}23.51%,26.26%{transform:scale(.32,1)}26.28%,27.18%{transform:scale(.36,1)}27.2%,28.1%{transform:scale(.4,1)}28.12%,28.56%{transform:scale(.44,1)}28.58%,29.02%{transform:scale(.48,1)}29.04%,30.4%{transform:scale(.52,1)}30.42%,31.33%{transform:scale(.56,1)}31.35%,33.17%{transform:scale(.6,1)}33.19%,33.63%{transform:scale(.64,1)}33.65%,34.55%{transform:scale(.68,1)}34.57%,36.4%{transform:scale(.72,1)}36.42%,38.24%{transform:scale(.76,1)}38.26%,39.16%{transform:scale(.8,1)}39.18%,41%{transform:scale(.84,1)}41.02%,41.93%{transform:scale(.88,1)}41.95%,50.68%{transform:scale(.92,1)}50.7%,51.14%{transform:scale(.96,1)}51.16%,to{transform:scale(1,1)}}@keyframes u1{52.99%{transform:scale(0,1)}53.01%,58.52%{transform:scale(.2,1)}58.54%,62.66%{transform:scale(.4,1)}62.68%,65.43%{transform:scale(.6,1)}65.45%,65.89%{transform:scale(.8,1)}65.91%,to{transform:scale(1,1)}}@keyframes u2{70.04%{transform:scale(0,1)}70.06%,70.5%{transform:scale(.5,1)}70.52%,to{transform:scale(1,1)}}@keyframes u3{75.57%{transform:scale(0,1)}75.59%,to{transform:scale(1,1)}}@keyframes s0{0%,99.54%{transform:translate(0,-16px)}.46%{transform:translate(0,0)}12.9%{transform:translate(432px,0)}13.82%{transform:translate(432px,32px)}15.67%{transform:translate(496px,32px)}16.13%{transform:translate(496px,16px)}18.89%{transform:translate(592px,16px)}19.35%{transform:translate(592px,32px)}20.28%,69.12%{transform:translate(624px,32px)}20.74%{transform:translate(624px,16px)}21.2%{transform:translate(640px,16px)}21.66%{transform:translate(640px,32px)}22.58%{transform:translate(672px,32px)}23.5%{transform:translate(672px,0)}27.19%{transform:translate(800px,0)}28.57%{transform:translate(800px,48px)}29.95%{transform:translate(752px,48px)}31.34%,48.85%,53.46%{transform:translate(752px,96px)}33.18%{transform:translate(688px,96px)}33.64%{transform:translate(688px,80px)}34.1%{transform:translate(672px,80px)}34.56%{transform:translate(672px,96px)}36.41%{transform:translate(608px,96px)}37.33%{transform:translate(608px,64px)}38.25%{transform:translate(576px,64px)}38.71%{transform:translate(576px,48px)}40.09%{transform:translate(528px,48px)}40.55%{transform:translate(528px,64px)}41.01%{transform:translate(512px,64px)}41.94%{transform:translate(512px,96px)}49.31%{transform:translate(752px,80px)}50.23%{transform:translate(784px,80px)}50.69%{transform:translate(784px,96px)}51.15%{transform:translate(800px,96px)}51.61%{transform:translate(800px,80px)}52.53%{transform:translate(768px,80px)}53%{transform:translate(768px,96px)}55.76%{transform:translate(752px,16px)}60.83%{transform:translate(576px,16px)}62.67%{transform:translate(576px,80px)}63.13%{transform:translate(560px,80px)}64.06%{transform:translate(560px,48px)}65.44%{transform:translate(512px,48px)}65.9%{transform:translate(512px,32px)}70.05%{transform:translate(624px,0)}73.27%{transform:translate(736px,0)}75.58%{transform:translate(736px,80px)}93.55%{transform:translate(112px,80px)}94.93%{transform:translate(112px,32px)}95.39%{transform:translate(96px,32px)}96.31%{transform:translate(96px,0)}96.77%{transform:translate(80px,0)}97.24%{transform:translate(80px,-16px)}}@keyframes s1{0%,99.54%{transform:translate(16px,-16px)}.46%{transform:translate(0,-16px)}.92%{transform:translate(0,0)}13.36%{transform:translate(432px,0)}14.29%{transform:translate(432px,32px)}16.13%{transform:translate(496px,32px)}16.59%{transform:translate(496px,16px)}19.35%{transform:translate(592px,16px)}19.82%{transform:translate(592px,32px)}20.74%,69.59%{transform:translate(624px,32px)}21.2%{transform:translate(624px,16px)}21.66%{transform:translate(640px,16px)}22.12%{transform:translate(640px,32px)}23.04%{transform:translate(672px,32px)}23.96%{transform:translate(672px,0)}27.65%{transform:translate(800px,0)}29.03%{transform:translate(800px,48px)}30.41%{transform:translate(752px,48px)}31.8%,49.31%,53.92%{transform:translate(752px,96px)}33.64%{transform:translate(688px,96px)}34.1%{transform:translate(688px,80px)}34.56%{transform:translate(672px,80px)}35.02%{transform:translate(672px,96px)}36.87%{transform:translate(608px,96px)}37.79%{transform:translate(608px,64px)}38.71%{transform:translate(576px,64px)}39.17%{transform:translate(576px,48px)}40.55%{transform:translate(528px,48px)}41.01%{transform:translate(528px,64px)}41.47%{transform:translate(512px,64px)}42.4%{transform:translate(512px,96px)}49.77%{transform:translate(752px,80px)}50.69%{transform:translate(784px,80px)}51.15%{transform:translate(784px,96px)}51.61%{transform:translate(800px,96px)}52.07%{transform:translate(800px,80px)}53%{transform:translate(768px,80px)}53.46%{transform:translate(768px,96px)}56.22%{transform:translate(752px,16px)}61.29%{transform:translate(576px,16px)}63.13%{transform:translate(576px,80px)}63.59%{transform:translate(560px,80px)}64.52%{transform:translate(560px,48px)}65.9%{transform:translate(512px,48px)}66.36%{transform:translate(512px,32px)}70.51%{transform:translate(624px,0)}73.73%{transform:translate(736px,0)}76.04%{transform:translate(736px,80px)}94.01%{transform:translate(112px,80px)}95.39%{transform:translate(112px,32px)}95.85%{transform:translate(96px,32px)}96.77%{transform:translate(96px,0)}97.24%{transform:translate(80px,0)}97.7%{transform:translate(80px,-16px)}}@keyframes s2{0%,99.54%{transform:translate(32px,-16px)}.92%{transform:translate(0,-16px)}1.38%{transform:translate(0,0)}13.82%{transform:translate(432px,0)}14.75%{transform:translate(432px,32px)}16.59%{transform:translate(496px,32px)}17.05%{transform:translate(496px,16px)}19.82%{transform:translate(592px,16px)}20.28%{transform:translate(592px,32px)}21.2%,70.05%{transform:translate(624px,32px)}21.66%{transform:translate(624px,16px)}22.12%{transform:translate(640px,16px)}22.58%{transform:translate(640px,32px)}23.5%{transform:translate(672px,32px)}24.42%{transform:translate(672px,0)}28.11%{transform:translate(800px,0)}29.49%{transform:translate(800px,48px)}30.88%{transform:translate(752px,48px)}32.26%,49.77%,54.38%{transform:translate(752px,96px)}34.1%{transform:translate(688px,96px)}34.56%{transform:translate(688px,80px)}35.02%{transform:translate(672px,80px)}35.48%{transform:translate(672px,96px)}37.33%{transform:translate(608px,96px)}38.25%{transform:translate(608px,64px)}39.17%{transform:translate(576px,64px)}39.63%{transform:translate(576px,48px)}41.01%{transform:translate(528px,48px)}41.47%{transform:translate(528px,64px)}41.94%{transform:translate(512px,64px)}42.86%{transform:translate(512px,96px)}50.23%{transform:translate(752px,80px)}51.15%{transform:translate(784px,80px)}51.61%{transform:translate(784px,96px)}52.07%{transform:translate(800px,96px)}52.53%{transform:translate(800px,80px)}53.46%{transform:translate(768px,80px)}53.92%{transform:translate(768px,96px)}56.68%{transform:translate(752px,16px)}61.75%{transform:translate(576px,16px)}63.59%{transform:translate(576px,80px)}64.06%{transform:translate(560px,80px)}64.98%{transform:translate(560px,48px)}66.36%{transform:translate(512px,48px)}66.82%{transform:translate(512px,32px)}70.97%{transform:translate(624px,0)}74.19%{transform:translate(736px,0)}76.5%{transform:translate(736px,80px)}94.47%{transform:translate(112px,80px)}95.85%{transform:translate(112px,32px)}96.31%{transform:translate(96px,32px)}97.24%{transform:translate(96px,0)}97.7%{transform:translate(80px,0)}98.16%{transform:translate(80px,-16px)}}@keyframes s3{0%,99.54%{transform:translate(48px,-16px)}1.38%{transform:translate(0,-16px)}1.84%{transform:translate(0,0)}14.29%{transform:translate(432px,0)}15.21%{transform:translate(432px,32px)}17.05%{transform:translate(496px,32px)}17.51%{transform:translate(496px,16px)}20.28%{transform:translate(592px,16px)}20.74%{transform:translate(592px,32px)}21.66%,70.51%{transform:translate(624px,32px)}22.12%{transform:translate(624px,16px)}22.58%{transform:translate(640px,16px)}23.04%{transform:translate(640px,32px)}23.96%{transform:translate(672px,32px)}24.88%{transform:translate(672px,0)}28.57%{transform:translate(800px,0)}29.95%{transform:translate(800px,48px)}31.34%{transform:translate(752px,48px)}32.72%,50.23%,54.84%{transform:translate(752px,96px)}34.56%{transform:translate(688px,96px)}35.02%{transform:translate(688px,80px)}35.48%{transform:translate(672px,80px)}35.94%{transform:translate(672px,96px)}37.79%{transform:translate(608px,96px)}38.71%{transform:translate(608px,64px)}39.63%{transform:translate(576px,64px)}40.09%{transform:translate(576px,48px)}41.47%{transform:translate(528px,48px)}41.94%{transform:translate(528px,64px)}42.4%{transform:translate(512px,64px)}43.32%{transform:translate(512px,96px)}50.69%{transform:translate(752px,80px)}51.61%{transform:translate(784px,80px)}52.07%{transform:translate(784px,96px)}52.53%{transform:translate(800px,96px)}53%{transform:translate(800px,80px)}53.92%{transform:translate(768px,80px)}54.38%{transform:translate(768px,96px)}57.14%{transform:translate(752px,16px)}62.21%{transform:translate(576px,16px)}64.06%{transform:translate(576px,80px)}64.52%{transform:translate(560px,80px)}65.44%{transform:translate(560px,48px)}66.82%{transform:translate(512px,48px)}67.28%{transform:translate(512px,32px)}71.43%{transform:translate(624px,0)}74.65%{transform:translate(736px,0)}76.96%{transform:translate(736px,80px)}94.93%{transform:translate(112px,80px)}96.31%{transform:translate(112px,32px)}96.77%{transform:translate(96px,32px)}97.7%{transform:translate(96px,0)}98.16%{transform:translate(80px,0)}98.62%{transform:translate(80px,-16px)}}:root{--cb:#1b1f230a;--cs:purple;--ce:#ebedf0;--c0:#ebedf0;--c1:#9be9a8;--c2:#40c463;--c3:#30a14e;--c4:#216e39}@media (prefers-color-scheme:dark){:root{--cb:#1b1f230a;--cs:purple;--ce:#161b22;--c0:#161b22;--c1:#01311f;--c2:#034525;--c3:#0f6d31;--c4:#00c647}}.c{shape-rendering:geometricPrecision;fill:var(--ce);stroke-width:1px;stroke:var(--cb);animation:none 21700ms linear infinite}.c.c0,.c.c1,.c.c2{fill:var(--c1);animation-name:c0}.c.c1,.c.c2{animation-name:c1}.c.c2{animation-name:c2}.c.c3,.c.c4{fill:var(--c2);animation-name:c3}.c.c4{animation-name:c4}.c.c5{fill:var(--c1);animation-name:c5}.c.c6,.c.c7,.c.c8{fill:var(--c1);animation-name:c6}.c.c7,.c.c8{animation-name:c7}.c.c8{animation-name:c8}.c.c9{fill:var(--c2);animation-name:c9}.c.ca,.c.cb,.c.cc{fill:var(--c1);animation-name:ca}.c.cb,.c.cc{animation-name:cb}.c.cc{animation-name:cc}.c.cd{fill:var(--c3);animation-name:cd}.c.ce{fill:var(--c1);animation-name:ce}.c.cf{fill:var(--c3);animation-name:cf}.c.cg{fill:var(--c2);animation-name:cg}.c.ch,.c.ci{fill:var(--c1);animation-name:ch}.c.ci{animation-name:ci}.c.cj,.c.ck,.c.cl{fill:var(--c1);animation-name:cj}.c.ck,.c.cl{animation-name:ck}.c.cl{animation-name:cl}.c.cm{fill:var(--c4);animation-name:cm}.c.cn,.c.co,.c.cp{fill:var(--c1);animation-name:cn}.c.co,.c.cp{animation-name:co}.c.cp{animation-name:cp}.c.cq{fill:var(--c2);animation-name:cq}.c.cr,.c.cs,.c.ct{fill:var(--c1);animation-name:cr}.c.cs,.c.ct{animation-name:cs}.c.ct{animation-name:ct}.c.cu,.c.cv,.c.cw{fill:var(--c1);animation-name:cu}.c.cv,.c.cw{animation-name:cv}.c.cw{animation-name:cw}.s,.u{animation:none linear 21700ms infinite}.u,.u.u0{transform-origin:0 0}.u{transform:scale(0,1)}.u.u0{fill:var(--c1);animation-name:u0}.u.u1{fill:var(--c2);animation-name:u1;transform-origin:642.4px 0}.u.u2{fill:var(--c3);animation-name:u2;transform-origin:770.9px 0}.u.u3{fill:var(--c4);animation-name:u3;transform-origin:822.3px 0}.s{shape-rendering:geometricPrecision;fill:var(--cs)}.s.s0{transform:translate(0,-16px);animation-name:s0}.s.s1{transform:translate(16px,-16px);animation-name:s1}.s.s2{transform:translate(32px,-16px);animation-name:s2}.s.s3{transform:translate(48px,-16px);animation-name:s3}</style><rect class="c" x="2" y="2" rx="2" ry="2" width="12" height="12"/><rect class="c" x="2" y="18" rx="2" ry="2" width="12" height="12"/><rect class="c" x="2" y="34" rx="2" ry="2" width="12" height="12"/><rect class="c" x="2" y="50" rx="2" ry="2" width="12" height="12"/><rect class="c" x="2" y="66" rx="2" ry="2" width="12" height="12"/><rect class="c" x="2" y="82" rx="2" ry="2" width="12" height="12"/><rect class="c" x="2" y="98" rx="2" ry="2" width="12" height="12"/><rect class="c" x="18" y="2" rx="2" ry="2" width="12" height="12"/><rect class="c" x="18" y="18" rx="2" ry="2" width="12" height="12"/><rect class="c" x="18" y="34" rx="2" ry="2" width="12" height="12"/><rect class="c" x="18" y="50" rx="2" ry="2" width="12" height="12"/><rect class="c" x="18" y="66" rx="2" ry="2" width="12" height="12"/><rect class="c" x="18" y="82" rx="2" ry="2" width="12" height="12"/><rect class="c" x="18" y="98" rx="2" ry="2" width="12" height="12"/><rect class="c" x="34" y="2" rx="2" ry="2" width="12" height="12"/><rect class="c" x="34" y="18" rx="2" ry="2" width="12" height="12"/><rect class="c" x="34" y="34" rx="2" ry="2" width="12" height="12"/><rect class="c" x="34" y="50" rx="2" ry="2" width="12" height="12"/><rect class="c" x="34" y="66" rx="2" ry="2" width="12" height="12"/><rect class="c" x="34" y="82" rx="2" ry="2" width="12" height="12"/><rect class="c" x="34" y="98" rx="2" ry="2" width="12" height="12"/><rect class="c" x="50" y="2" rx="2" ry="2" width="12" height="12"/><rect class="c" x="50" y="18" rx="2" ry="2" width="12" height="12"/><rect class="c" x="50" y="34" rx="2" ry="2" width="12" height="12"/><rect class="c" x="50" y="50" rx="2" ry="2" width="12" height="12"/><rect class="c" x="50" y="66" rx="2" ry="2" width="12" height="12"/><rect class="c" x="50" y="82" rx="2" ry="2" width="12" height="12"/><rect class="c" x="50" y="98" rx="2" ry="2" width="12" height="12"/><rect class="c" x="66" y="2" rx="2" ry="2" width="12" height="12"/><rect class="c" x="66" y="18" rx="2" ry="2" width="12" height="12"/><rect class="c" x="66" y="34" rx="2" ry="2" width="12" height="12"/><rect class="c" x="66" y="50" rx="2" ry="2" width="12" height="12"/><rect class="c" x="66" y="66" rx="2" ry="2" width="12" height="12"/><rect class="c" x="66" y="82" rx="2" ry="2" width="12" height="12"/><rect class="c" x="66" y="98" rx="2" ry="2" width="12" height="12"/><rect class="c" x="82" y="2" rx="2" ry="2" width="12" height="12"/><rect class="c" x="82" y="18" rx="2" ry="2" width="12" height="12"/><rect class="c" x="82" y="34" rx="2" ry="2" width="12" height="12"/><rect class="c" x="82" y="50" rx="2" ry="2" width="12" height="12"/><rect class="c" x="82" y="66" rx="2" ry="2" width="12" height="12"/><rect class="c" x="82" y="82" rx="2" ry="2" width="12" height="12"/><rect class="c" x="82" y="98" rx="2" ry="2" width="12" height="12"/><rect class="c" x="98" y="2" rx="2" ry="2" width="12" height="12"/><rect class="c" x="98" y="18" rx="2" ry="2" width="12" height="12"/><rect class="c" x="98" y="34" rx="2" ry="2" width="12" height="12"/><rect class="c" x="98" y="50" rx="2" ry="2" width="12" height="12"/><rect class="c" x="98" y="66" rx="2" ry="2" width="12" height="12"/><rect class="c" x="98" y="82" rx="2" ry="2" width="12" height="12"/><rect class="c" x="98" y="98" rx="2" ry="2" width="12" height="12"/><rect class="c" x="114" y="2" rx="2" ry="2" width="12" height="12"/><rect class="c" x="114" y="18" rx="2" ry="2" width="12" height="12"/><rect class="c" x="114" y="34" rx="2" ry="2" width="12" height="12"/><rect class="c" x="114" y="50" rx="2" ry="2" width="12" height="12"/><rect class="c" x="114" y="66" rx="2" ry="2" width="12" height="12"/><rect class="c" x="114" y="82" rx="2" ry="2" width="12" height="12"/><rect class="c" x="114" y="98" rx="2" ry="2" width="12" height="12"/><rect class="c" x="130" y="2" rx="2" ry="2" width="12" height="12"/><rect class="c" x="130" y="18" rx="2" ry="2" width="12" height="12"/><rect class="c" x="130" y="34" rx="2" ry="2" width="12" height="12"/><rect class="c" x="130" y="50" rx="2" ry="2" width="12" height="12"/><rect class="c" x="130" y="66" rx="2" ry="2" width="12" height="12"/><rect class="c" x="130" y="82" rx="2" ry="2" width="12" height="12"/><rect class="c" x="130" y="98" rx="2" ry="2" width="12" height="12"/><rect class="c" x="146" y="2" rx="2" ry="2" width="12" height="12"/><rect class="c" x="146" y="18" rx="2" ry="2" width="12" height="12"/><rect class="c" x="146" y="34" rx="2" ry="2" width="12" height="12"/><rect class="c" x="146" y="50" rx="2" ry="2" width="12" height="12"/><rect class="c" x="146" y="66" rx="2" ry="2" width="12" height="12"/><rect class="c" x="146" y="82" rx="2" ry="2" width="12" height="12"/><rect class="c" x="146" y="98" rx="2" ry="2" width="12" height="12"/><rect class="c" x="162" y="2" rx="2" ry="2" width="12" height="12"/><rect class="c" x="162" y="18" rx="2" ry="2" width="12" height="12"/><rect class="c" x="162" y="34" rx="2" ry="2" width="12" height="12"/><rect class="c" x="162" y="50" rx="2" ry="2" width="12" height="12"/><rect class="c" x="162" y="66" rx="2" ry="2" width="12" height="12"/><rect class="c" x="162" y="82" rx="2" ry="2" width="12" height="12"/><rect class="c" x="162" y="98" rx="2" ry="2" width="12" height="12"/><rect class="c" x="178" y="2" rx="2" ry="2" width="12" height="12"/><rect class="c" x="178" y="18" rx="2" ry="2" width="12" height="12"/><rect class="c" x="178" y="34" rx="2" ry="2" width="12" height="12"/><rect class="c" x="178" y="50" rx="2" ry="2" width="12" height="12"/><rect class="c" x="178" y="66" rx="2" ry="2" width="12" height="12"/><rect class="c" x="178" y="82" rx="2" ry="2" width="12" height="12"/><rect class="c" x="178" y="98" rx="2" ry="2" width="12" height="12"/><rect class="c" x="194" y="2" rx="2" ry="2" width="12" height="12"/><rect class="c" x="194" y="18" rx="2" ry="2" width="12" height="12"/><rect class="c" x="194" y="34" rx="2" ry="2" width="12" height="12"/><rect class="c" x="194" y="50" rx="2" ry="2" width="12" height="12"/><rect class="c" x="194" y="66" rx="2" ry="2" width="12" height="12"/><rect class="c" x="194" y="82" rx="2" ry="2" width="12" height="12"/><rect class="c" x="194" y="98" rx="2" ry="2" width="12" height="12"/><rect class="c" x="210" y="2" rx="2" ry="2" width="12" height="12"/><rect class="c" x="210" y="18" rx="2" ry="2" width="12" height="12"/><rect class="c" x="210" y="34" rx="2" ry="2" width="12" height="12"/><rect class="c" x="210" y="50" rx="2" ry="2" width="12" height="12"/><rect class="c" x="210" y="66" rx="2" ry="2" width="12" height="12"/><rect class="c" x="210" y="82" rx="2" ry="2" width="12" height="12"/><rect class="c" x="210" y="98" rx="2" ry="2" width="12" height="12"/><rect class="c" x="226" y="2" rx="2" ry="2" width="12" height="12"/><rect class="c" x="226" y="18" rx="2" ry="2" width="12" height="12"/><rect class="c" x="226" y="34" rx="2" ry="2" width="12" height="12"/><rect class="c" x="226" y="50" rx="2" ry="2" width="12" height="12"/><rect class="c" x="226" y="66" rx="2" ry="2" width="12" height="12"/><rect class="c" x="226" y="82" rx="2" ry="2" width="12" height="12"/><rect class="c" x="226" y="98" rx="2" ry="2" width="12" height="12"/><rect class="c" x="242" y="2" rx="2" ry="2" width="12" height="12"/><rect class="c" x="242" y="18" rx="2" ry="2" width="12" height="12"/><rect class="c" x="242" y="34" rx="2" ry="2" width="12" height="12"/><rect class="c" x="242" y="50" rx="2" ry="2" width="12" height="12"/><rect class="c" x="242" y="66" rx="2" ry="2" width="12" height="12"/><rect class="c" x="242" y="82" rx="2" ry="2" width="12" height="12"/><rect class="c" x="242" y="98" rx="2" ry="2" width="12" height="12"/><rect class="c" x="258" y="2" rx="2" ry="2" width="12" height="12"/><rect class="c" x="258" y="18" rx="2" ry="2" width="12" height="12"/><rect class="c" x="258" y="34" rx="2" ry="2" width="12" height="12"/><rect class="c" x="258" y="50" rx="2" ry="2" width="12" height="12"/><rect class="c" x="258" y="66" rx="2" ry="2" width="12" height="12"/><rect class="c" x="258" y="82" rx="2" ry="2" width="12" height="12"/><rect class="c" x="258" y="98" rx="2" ry="2" width="12" height="12"/><rect class="c" x="274" y="2" rx="2" ry="2" width="12" height="12"/><rect class="c" x="274" y="18" rx="2" ry="2" width="12" height="12"/><rect class="c" x="274" y="34" rx="2" ry="2" width="12" height="12"/><rect class="c" x="274" y="50" rx="2" ry="2" width="12" height="12"/><rect class="c" x="274" y="66" rx="2" ry="2" width="12" height="12"/><rect class="c" x="274" y="82" rx="2" ry="2" width="12" height="12"/><rect class="c" x="274" y="98" rx="2" ry="2" width="12" height="12"/><rect class="c" x="290" y="2" rx="2" ry="2" width="12" height="12"/><rect class="c" x="290" y="18" rx="2" ry="2" width="12" height="12"/><rect class="c" x="290" y="34" rx="2" ry="2" width="12" height="12"/><rect class="c" x="290" y="50" rx="2" ry="2" width="12" height="12"/><rect class="c" x="290" y="66" rx="2" ry="2" width="12" height="12"/><rect class="c" x="290" y="82" rx="2" ry="2" width="12" height="12"/><rect class="c" x="290" y="98" rx="2" ry="2" width="12" height="12"/><rect class="c" x="306" y="2" rx="2" ry="2" width="12" height="12"/><rect class="c" x="306" y="18" rx="2" ry="2" width="12" height="12"/><rect class="c" x="306" y="34" rx="2" ry="2" width="12" height="12"/><rect class="c" x="306" y="50" rx="2" ry="2" width="12" height="12"/><rect class="c" x="306" y="66" rx="2" ry="2" width="12" height="12"/><rect class="c" x="306" y="82" rx="2" ry="2" width="12" height="12"/><rect class="c" x="306" y="98" rx="2" ry="2" width="12" height="12"/><rect class="c" x="322" y="2" rx="2" ry="2" width="12" height="12"/><rect class="c" x="322" y="18" rx="2" ry="2" width="12" height="12"/><rect class="c" x="322" y="34" rx="2" ry="2" width="12" height="12"/><rect class="c" x="322" y="50" rx="2" ry="2" width="12" height="12"/><rect class="c" x="322" y="66" rx="2" ry="2" width="12" height="12"/><rect class="c" x="322" y="82" rx="2" ry="2" width="12" height="12"/><rect class="c" x="322" y="98" rx="2" ry="2" width="12" height="12"/><rect class="c" x="338" y="2" rx="2" ry="2" width="12" height="12"/><rect class="c" x="338" y="18" rx="2" ry="2" width="12" height="12"/><rect class="c" x="338" y="34" rx="2" ry="2" width="12" height="12"/><rect class="c" x="338" y="50" rx="2" ry="2" width="12" height="12"/><rect class="c" x="338" y="66" rx="2" ry="2" width="12" height="12"/><rect class="c" x="338" y="82" rx="2" ry="2" width="12" height="12"/><rect class="c" x="338" y="98" rx="2" ry="2" width="12" height="12"/><rect class="c" x="354" y="2" rx="2" ry="2" width="12" height="12"/><rect class="c" x="354" y="18" rx="2" ry="2" width="12" height="12"/><rect class="c" x="354" y="34" rx="2" ry="2" width="12" height="12"/><rect class="c" x="354" y="50" rx="2" ry="2" width="12" height="12"/><rect class="c" x="354" y="66" rx="2" ry="2" width="12" height="12"/><rect class="c" x="354" y="82" rx="2" ry="2" width="12" height="12"/><rect class="c" x="354" y="98" rx="2" ry="2" width="12" height="12"/><rect class="c" x="370" y="2" rx="2" ry="2" width="12" height="12"/><rect class="c" x="370" y="18" rx="2" ry="2" width="12" height="12"/><rect class="c" x="370" y="34" rx="2" ry="2" width="12" height="12"/><rect class="c" x="370" y="50" rx="2" ry="2" width="12" height="12"/><rect class="c" x="370" y="66" rx="2" ry="2" width="12" height="12"/><rect class="c" x="370" y="82" rx="2" ry="2" width="12" height="12"/><rect class="c" x="370" y="98" rx="2" ry="2" width="12" height="12"/><rect class="c" x="386" y="2" rx="2" ry="2" width="12" height="12"/><rect class="c" x="386" y="18" rx="2" ry="2" width="12" height="12"/><rect class="c" x="386" y="34" rx="2" ry="2" width="12" height="12"/><rect class="c" x="386" y="50" rx="2" ry="2" width="12" height="12"/><rect class="c" x="386" y="66" rx="2" ry="2" width="12" height="12"/><rect class="c" x="386" y="82" rx="2" ry="2" width="12" height="12"/><rect class="c" x="386" y="98" rx="2" ry="2" width="12" height="12"/><rect class="c" x="402" y="2" rx="2" ry="2" width="12" height="12"/><rect class="c" x="402" y="18" rx="2" ry="2" width="12" height="12"/><rect class="c" x="402" y="34" rx="2" ry="2" width="12" height="12"/><rect class="c" x="402" y="50" rx="2" ry="2" width="12" height="12"/><rect class="c" x="402" y="66" rx="2" ry="2" width="12" height="12"/><rect class="c" x="402" y="82" rx="2" ry="2" width="12" height="12"/><rect class="c" x="402" y="98" rx="2" ry="2" width="12" height="12"/><rect class="c" x="418" y="2" rx="2" ry="2" width="12" height="12"/><rect class="c" x="418" y="18" rx="2" ry="2" width="12" height="12"/><rect class="c" x="418" y="34" rx="2" ry="2" width="12" height="12"/><rect class="c" x="418" y="50" rx="2" ry="2" width="12" height="12"/><rect class="c" x="418" y="66" rx="2" ry="2" width="12" height="12"/><rect class="c" x="418" y="82" rx="2" ry="2" width="12" height="12"/><rect class="c" x="418" y="98" rx="2" ry="2" width="12" height="12"/><rect class="c" x="434" y="2" rx="2" ry="2" width="12" height="12"/><rect class="c c0" x="434" y="18" rx="2" ry="2" width="12" height="12"/><rect class="c c1" x="434" y="34" rx="2" ry="2" width="12" height="12"/><rect class="c" x="434" y="50" rx="2" ry="2" width="12" height="12"/><rect class="c" x="434" y="66" rx="2" ry="2" width="12" height="12"/><rect class="c" x="434" y="82" rx="2" ry="2" width="12" height="12"/><rect class="c" x="434" y="98" rx="2" ry="2" width="12" height="12"/><rect class="c" x="450" y="2" rx="2" ry="2" width="12" height="12"/><rect class="c" x="450" y="18" rx="2" ry="2" width="12" height="12"/><rect class="c" x="450" y="34" rx="2" ry="2" width="12" height="12"/><rect class="c" x="450" y="50" rx="2" ry="2" width="12" height="12"/><rect class="c" x="450" y="66" rx="2" ry="2" width="12" height="12"/><rect class="c" x="450" y="82" rx="2" ry="2" width="12" height="12"/><rect class="c" x="450" y="98" rx="2" ry="2" width="12" height="12"/><rect class="c" x="466" y="2" rx="2" ry="2" width="12" height="12"/><rect class="c" x="466" y="18" rx="2" ry="2" width="12" height="12"/><rect class="c" x="466" y="34" rx="2" ry="2" width="12" height="12"/><rect class="c" x="466" y="50" rx="2" ry="2" width="12" height="12"/><rect class="c" x="466" y="66" rx="2" ry="2" width="12" height="12"/><rect class="c" x="466" y="82" rx="2" ry="2" width="12" height="12"/><rect class="c" x="466" y="98" rx="2" ry="2" width="12" height="12"/><rect class="c" x="482" y="2" rx="2" ry="2" width="12" height="12"/><rect class="c" x="482" y="18" rx="2" ry="2" width="12" height="12"/><rect class="c" x="482" y="34" rx="2" ry="2" width="12" height="12"/><rect class="c" x="482" y="50" rx="2" ry="2" width="12" height="12"/><rect class="c" x="482" y="66" rx="2" ry="2" width="12" height="12"/><rect class="c" x="482" y="82" rx="2" ry="2" width="12" height="12"/><rect class="c" x="482" y="98" rx="2" ry="2" width="12" height="12"/><rect class="c" x="498" y="2" rx="2" ry="2" width="12" height="12"/><rect class="c" x="498" y="18" rx="2" ry="2" width="12" height="12"/><rect class="c" x="498" y="34" rx="2" ry="2" width="12" height="12"/><rect class="c" x="498" y="50" rx="2" ry="2" width="12" height="12"/><rect class="c" x="498" y="66" rx="2" ry="2" width="12" height="12"/><rect class="c" x="498" y="82" rx="2" ry="2" width="12" height="12"/><rect class="c" x="498" y="98" rx="2" ry="2" width="12" height="12"/><rect class="c" x="514" y="2" rx="2" ry="2" width="12" height="12"/><rect class="c c2" x="514" y="18" rx="2" ry="2" width="12" height="12"/><rect class="c c3" x="514" y="34" rx="2" ry="2" width="12" height="12"/><rect class="c c4" x="514" y="50" rx="2" ry="2" width="12" height="12"/><rect class="c c5" x="514" y="66" rx="2" ry="2" width="12" height="12"/><rect class="c" x="514" y="82" rx="2" ry="2" width="12" height="12"/><rect class="c c6" x="514" y="98" rx="2" ry="2" width="12" height="12"/><rect class="c" x="530" y="2" rx="2" ry="2" width="12" height="12"/><rect class="c" x="530" y="18" rx="2" ry="2" width="12" height="12"/><rect class="c" x="530" y="34" rx="2" ry="2" width="12" height="12"/><rect class="c" x="530" y="50" rx="2" ry="2" width="12" height="12"/><rect class="c" x="530" y="66" rx="2" ry="2" width="12" height="12"/><rect class="c" x="530" y="82" rx="2" ry="2" width="12" height="12"/><rect class="c" x="530" y="98" rx="2" ry="2" width="12" height="12"/><rect class="c" x="546" y="2" rx="2" ry="2" width="12" height="12"/><rect class="c" x="546" y="18" rx="2" ry="2" width="12" height="12"/><rect class="c" x="546" y="34" rx="2" ry="2" width="12" height="12"/><rect class="c" x="546" y="50" rx="2" ry="2" width="12" height="12"/><rect class="c" x="546" y="66" rx="2" ry="2" width="12" height="12"/><rect class="c" x="546" y="82" rx="2" ry="2" width="12" height="12"/><rect class="c" x="546" y="98" rx="2" ry="2" width="12" height="12"/><rect class="c" x="562" y="2" rx="2" ry="2" width="12" height="12"/><rect class="c" x="562" y="18" rx="2" ry="2" width="12" height="12"/><rect class="c" x="562" y="34" rx="2" ry="2" width="12" height="12"/><rect class="c c7" x="562" y="50" rx="2" ry="2" width="12" height="12"/><rect class="c" x="562" y="66" rx="2" ry="2" width="12" height="12"/><rect class="c" x="562" y="82" rx="2" ry="2" width="12" height="12"/><rect class="c" x="562" y="98" rx="2" ry="2" width="12" height="12"/><rect class="c" x="578" y="2" rx="2" ry="2" width="12" height="12"/><rect class="c" x="578" y="18" rx="2" ry="2" width="12" height="12"/><rect class="c" x="578" y="34" rx="2" ry="2" width="12" height="12"/><rect class="c" x="578" y="50" rx="2" ry="2" width="12" height="12"/><rect class="c c8" x="578" y="66" rx="2" ry="2" width="12" height="12"/><rect class="c c9" x="578" y="82" rx="2" ry="2" width="12" height="12"/><rect class="c" x="578" y="98" rx="2" ry="2" width="12" height="12"/><rect class="c" x="594" y="2" rx="2" ry="2" width="12" height="12"/><rect class="c ca" x="594" y="18" rx="2" ry="2" width="12" height="12"/><rect class="c cb" x="594" y="34" rx="2" ry="2" width="12" height="12"/><rect class="c" x="594" y="50" rx="2" ry="2" width="12" height="12"/><rect class="c" x="594" y="66" rx="2" ry="2" width="12" height="12"/><rect class="c" x="594" y="82" rx="2" ry="2" width="12" height="12"/><rect class="c" x="594" y="98" rx="2" ry="2" width="12" height="12"/><rect class="c" x="610" y="2" rx="2" ry="2" width="12" height="12"/><rect class="c" x="610" y="18" rx="2" ry="2" width="12" height="12"/><rect class="c" x="610" y="34" rx="2" ry="2" width="12" height="12"/><rect class="c" x="610" y="50" rx="2" ry="2" width="12" height="12"/><rect class="c" x="610" y="66" rx="2" ry="2" width="12" height="12"/><rect class="c" x="610" y="82" rx="2" ry="2" width="12" height="12"/><rect class="c cc" x="610" y="98" rx="2" ry="2" width="12" height="12"/><rect class="c cd" x="626" y="2" rx="2" ry="2" width="12" height="12"/><rect class="c ce" x="626" y="18" rx="2" ry="2" width="12" height="12"/><rect class="c" x="626" y="34" rx="2" ry="2" width="12" height="12"/><rect class="c" x="626" y="50" rx="2" ry="2" width="12" height="12"/><rect class="c" x="626" y="66" rx="2" ry="2" width="12" height="12"/><rect class="c" x="626" y="82" rx="2" ry="2" width="12" height="12"/><rect class="c" x="626" y="98" rx="2" ry="2" width="12" height="12"/><rect class="c cf" x="642" y="2" rx="2" ry="2" width="12" height="12"/><rect class="c" x="642" y="18" rx="2" ry="2" width="12" height="12"/><rect class="c" x="642" y="34" rx="2" ry="2" width="12" height="12"/><rect class="c" x="642" y="50" rx="2" ry="2" width="12" height="12"/><rect class="c" x="642" y="66" rx="2" ry="2" width="12" height="12"/><rect class="c" x="642" y="82" rx="2" ry="2" width="12" height="12"/><rect class="c" x="642" y="98" rx="2" ry="2" width="12" height="12"/><rect class="c" x="658" y="2" rx="2" ry="2" width="12" height="12"/><rect class="c cg" x="658" y="18" rx="2" ry="2" width="12" height="12"/><rect class="c" x="658" y="34" rx="2" ry="2" width="12" height="12"/><rect class="c" x="658" y="50" rx="2" ry="2" width="12" height="12"/><rect class="c" x="658" y="66" rx="2" ry="2" width="12" height="12"/><rect class="c" x="658" y="82" rx="2" ry="2" width="12" height="12"/><rect class="c" x="658" y="98" rx="2" ry="2" width="12" height="12"/><rect class="c ch" x="674" y="2" rx="2" ry="2" width="12" height="12"/><rect class="c ci" x="674" y="18" rx="2" ry="2" width="12" height="12"/><rect class="c" x="674" y="34" rx="2" ry="2" width="12" height="12"/><rect class="c" x="674" y="50" rx="2" ry="2" width="12" height="12"/><rect class="c" x="674" y="66" rx="2" ry="2" width="12" height="12"/><rect class="c" x="674" y="82" rx="2" ry="2" width="12" height="12"/><rect class="c cj" x="674" y="98" rx="2" ry="2" width="12" height="12"/><rect class="c" x="690" y="2" rx="2" ry="2" width="12" height="12"/><rect class="c" x="690" y="18" rx="2" ry="2" width="12" height="12"/><rect class="c" x="690" y="34" rx="2" ry="2" width="12" height="12"/><rect class="c" x="690" y="50" rx="2" ry="2" width="12" height="12"/><rect class="c" x="690" y="66" rx="2" ry="2" width="12" height="12"/><rect class="c ck" x="690" y="82" rx="2" ry="2" width="12" height="12"/><rect class="c cl" x="690" y="98" rx="2" ry="2" width="12" height="12"/><rect class="c" x="706" y="2" rx="2" ry="2" width="12" height="12"/><rect class="c" x="706" y="18" rx="2" ry="2" width="12" height="12"/><rect class="c" x="706" y="34" rx="2" ry="2" width="12" height="12"/><rect class="c" x="706" y="50" rx="2" ry="2" width="12" height="12"/><rect class="c" x="706" y="66" rx="2" ry="2" width="12" height="12"/><rect class="c" x="706" y="82" rx="2" ry="2" width="12" height="12"/><rect class="c" x="706" y="98" rx="2" ry="2" width="12" height="12"/><rect class="c" x="722" y="2" rx="2" ry="2" width="12" height="12"/><rect class="c" x="722" y="18" rx="2" ry="2" width="12" height="12"/><rect class="c" x="722" y="34" rx="2" ry="2" width="12" height="12"/><rect class="c" x="722" y="50" rx="2" ry="2" width="12" height="12"/><rect class="c" x="722" y="66" rx="2" ry="2" width="12" height="12"/><rect class="c" x="722" y="82" rx="2" ry="2" width="12" height="12"/><rect class="c" x="722" y="98" rx="2" ry="2" width="12" height="12"/><rect class="c" x="738" y="2" rx="2" ry="2" width="12" height="12"/><rect class="c" x="738" y="18" rx="2" ry="2" width="12" height="12"/><rect class="c" x="738" y="34" rx="2" ry="2" width="12" height="12"/><rect class="c" x="738" y="50" rx="2" ry="2" width="12" height="12"/><rect class="c" x="738" y="66" rx="2" ry="2" width="12" height="12"/><rect class="c cm" x="738" y="82" rx="2" ry="2" width="12" height="12"/><rect class="c" x="738" y="98" rx="2" ry="2" width="12" height="12"/><rect class="c" x="754" y="2" rx="2" ry="2" width="12" height="12"/><rect class="c" x="754" y="18" rx="2" ry="2" width="12" height="12"/><rect class="c" x="754" y="34" rx="2" ry="2" width="12" height="12"/><rect class="c" x="754" y="50" rx="2" ry="2" width="12" height="12"/><rect class="c cn" x="754" y="66" rx="2" ry="2" width="12" height="12"/><rect class="c" x="754" y="82" rx="2" ry="2" width="12" height="12"/><rect class="c co" x="754" y="98" rx="2" ry="2" width="12" height="12"/><rect class="c cp" x="770" y="2" rx="2" ry="2" width="12" height="12"/><rect class="c" x="770" y="18" rx="2" ry="2" width="12" height="12"/><rect class="c" x="770" y="34" rx="2" ry="2" width="12" height="12"/><rect class="c" x="770" y="50" rx="2" ry="2" width="12" height="12"/><rect class="c" x="770" y="66" rx="2" ry="2" width="12" height="12"/><rect class="c" x="770" y="82" rx="2" ry="2" width="12" height="12"/><rect class="c cq" x="770" y="98" rx="2" ry="2" width="12" height="12"/><rect class="c" x="786" y="2" rx="2" ry="2" width="12" height="12"/><rect class="c" x="786" y="18" rx="2" ry="2" width="12" height="12"/><rect class="c" x="786" y="34" rx="2" ry="2" width="12" height="12"/><rect class="c cr" x="786" y="50" rx="2" ry="2" width="12" height="12"/><rect class="c" x="786" y="66" rx="2" ry="2" width="12" height="12"/><rect class="c" x="786" y="82" rx="2" ry="2" width="12" height="12"/><rect class="c cs" x="786" y="98" rx="2" ry="2" width="12" height="12"/><rect class="c ct" x="802" y="2" rx="2" ry="2" width="12" height="12"/><rect class="c" x="802" y="18" rx="2" ry="2" width="12" height="12"/><rect class="c cu" x="802" y="34" rx="2" ry="2" width="12" height="12"/><rect class="c cv" x="802" y="50" rx="2" ry="2" width="12" height="12"/><rect class="c" x="802" y="66" rx="2" ry="2" width="12" height="12"/><rect class="c" x="802" y="82" rx="2" ry="2" width="12" height="12"/><rect class="c cw" x="802" y="98" rx="2" ry="2" width="12" height="12"/><rect class="c" x="818" y="2" rx="2" ry="2" width="12" height="12"/><rect class="c" x="818" y="18" rx="2" ry="2" width="12" height="12"/><rect class="c" x="818" y="34" rx="2" ry="2" width="12" height="12"/><rect class="c" x="818" y="50" rx="2" ry="2" width="12" height="12"/><rect class="c" x="818" y="66" rx="2" ry="2" width="12" height="12"/><rect class="c" x="818" y="82" rx="2" ry="2" width="12" height="12"/><rect class="c" x="818" y="98" rx="2" ry="2" width="12" height="12"/><rect class="c" x="834" y="2" rx="2" ry="2" width="12" height="12"/><rect class="u u0" height="12" width="643.0" x="0.0" y="144"/><rect class="u u1" height="12" width="129.1" x="642.4" y="144"/><rect class="u u2" height="12" width="52.0" x="770.9" y="144"/><rect class="u u3" height="12" width="26.3" x="822.3" y="144"/><rect class="s s0" x="0.8" y="0.8" width="14.4" height="14.4" rx="4.5" ry="4.5"/><rect class="s s1" x="1.8" y="1.8" width="12.3" height="12.3" rx="4.1" ry="4.1"/><rect class="s s2" x="2.6" y="2.6" width="10.8" height="10.8" rx="3.6" ry="3.6"/><rect class="s s3" x="3.0" y="3.0" width="9.9" height="9.9" rx="3.3" ry="3.3"/></svg>